M48
;DRILL file {kicad (2014-jul-16 BZR unknown)-product} date mer. 07 oct. 2015 22:56:05 CEST
;FORMAT={-:-/ absolute / inch / decimal}
FMAT,2
INCH,TZ
T1C0.024
T2C0.025
T3C0.040
T4C0.059
T5C0.060
T6C0.118
%
G90
G05
M72
T1
X5.5465Y-2.634
X5.5465Y-2.734
X5.5465Y-2.834
X5.6465Y-2.634
X5.6465Y-2.734
X5.6465Y-2.834
T2
X3.8Y-3.5
X3.9559Y-3.6
X4.8Y-3.5
X6.05Y-3.3
X6.05Y-3.6
X6.5Y-1.9
X6.5Y-2.9
X6.55Y-3.3
X6.6Y-2.
X6.6Y-2.5
T3
X3.7865Y-1.834
X3.8865Y-1.834
X3.9865Y-1.834
X4.0865Y-1.834
X4.1865Y-1.834
X4.2865Y-1.834
X4.3465Y-3.734
X4.3865Y-1.834
X4.4465Y-3.734
X4.45Y-2.75
X4.4865Y-1.834
X4.5465Y-3.734
X4.55Y-2.75
X4.5865Y-1.834
X4.6465Y-3.734
X4.6865Y-1.834
X4.7465Y-3.734
X4.8465Y-1.834
X4.8465Y-3.734
X4.9465Y-1.834
X5.0465Y-1.834
X5.0465Y-3.734
X5.1465Y-1.834
X5.1465Y-3.734
X5.2465Y-1.834
X5.2465Y-3.734
X5.3465Y-1.834
X5.3465Y-3.734
X5.4465Y-1.834
X5.4465Y-3.734
X5.5465Y-1.834
X5.5465Y-3.734
T4
X3.9559Y-3.0898
X3.9559Y-3.3063
X4.1213Y-3.0898
X4.1213Y-3.3063
X4.2866Y-3.0898
X4.2866Y-3.3063
X4.452Y-3.0898
X4.452Y-3.3063
X4.6173Y-3.0898
X4.6173Y-3.3063
X4.7827Y-3.0898
X4.7827Y-3.3063
X4.948Y-3.0898
X4.948Y-3.3063
X5.1134Y-3.0898
X5.1134Y-3.3063
X5.2787Y-3.3063
X5.2827Y-3.0898
X5.4441Y-3.0898
X5.4441Y-3.3063
T5
X3.1Y-0.95
X3.1Y-4.25
X3.3Y-0.95
X3.3Y-4.25
X3.5Y-0.95
X3.5Y-4.25
X3.7Y-0.95
X3.7Y-4.25
X3.9Y-0.95
X4.1Y-0.95
X4.1Y-4.25
X4.3Y-0.95
X4.3Y-4.25
X4.5Y-0.95
X4.5Y-4.25
X4.7Y-0.95
X4.7Y-4.25
X4.9Y-0.95
X4.9Y-4.25
X5.1Y-0.95
X5.1Y-4.25
X5.3Y-0.95
X5.3Y-4.25
X5.5Y-0.95
X5.5Y-4.25
X5.7Y-0.95
X5.7Y-4.25
X5.9Y-0.95
X5.9Y-4.25
X6.1Y-0.95
X6.1Y-4.25
X6.3Y-0.95
X6.3Y-4.25
X6.5Y-0.95
X6.7Y-0.95
X6.9Y-0.95
X6.9Y-1.5
X6.9Y-1.7
X6.9Y-1.9
X6.9Y-2.1
X6.9Y-2.3
X6.9Y-2.5
X6.9Y-2.7
X6.9Y-2.9
X6.9Y-3.3
X6.9Y-3.5
X6.9Y-3.7
X6.9Y-3.9
T6
X3.7709Y-3.1055
X5.6291Y-3.1055
T0
M30
